<svg xmlns="http://www.w3.org/2000/svg" viewBox="0 0 313.2 74" style="enable-background:new 0 0 313.2 74" xml:space="preserve"><path d="M93.6 20.3h9.7v3.9c2.3-3 6-4.7 9.8-4.7 8.4 0 13.5 5.4 13.5 14.6v21.7h-9.9V35.4c0-4.8-2.2-7.5-6.6-7.5s-6.8 2.5-6.8 8.5v19.5h-9.7V20.3zM129.1 38c0-12.6 9.3-18.4 17.3-18.4 4-.1 7.9 1.6 10.6 4.6v-3.9h9.7v34.5c0 10.1-6.3 18.2-18.4 18.2-9 0-15.7-4.8-18.5-10.2l8.6-4.9c1.8 3.9 5.7 6.2 9.9 6.1 4.7.1 8.6-3.7 8.6-8.4v-3.8c-2.7 3.1-6.6 4.8-10.7 4.7-7.5 0-17.1-5.9-17.1-18.5zm28.3 0c0-5.3-3.9-9.5-9.1-9.5-5.1-.2-9.4 3.8-9.5 8.9v.6c-.2 5.1 3.9 9.5 9 9.6h.5c5.2 0 9.1-4.3 9.1-9.6zm23.1 14.4v19.9h-9.7v-52h9.7v4c2.7-3.1 6.6-4.9 10.7-4.8 8 0 17.2 5.9 17.2 18.4s-9.5 18.5-17.1 18.5c-4.6.1-8.5-1.4-10.8-4zM198.9 38c.1-5.1-4-9.4-9.1-9.5h-.4c-5.3 0-9.1 4.3-9.1 9.5s3.9 9.6 9.1 9.6c5.2.1 9.5-4.1 9.5-9.3V38zm8.6-17.7h6l10.7 28.1 10.5-28.1h5.9l-13.8 35.6h-5.5l-13.8-35.6zM239.1 38c0-10.1 7.6-18.4 18.2-18.4 5.1.1 9.9 2.5 13.1 6.5v-5.8h5.6v35.6h-5.6v-5.8c-3.1 4.1-8 6.5-13.1 6.5-10 .1-18.2-8-18.2-18V38zm31.8 0c.6-7.2-4.7-13.6-12-14.3-7.2-.6-13.6 4.7-14.3 12-.1.8-.1 1.5 0 2.3 0 7.5 5.7 13.6 13 13.6s13.3-6 13.3-13.3V38zm9.3-17.7h5.4v5.3c2.8-3.9 7.4-6.1 12.2-6 9.5 0 15.5 6.2 15.5 16.5v19.8h-5.6V36.1c0-6.9-3.6-11.6-10.7-11.6-6.2-.1-11.2 4.9-11.2 11v20.3h-5.5l-.1-35.5zM37 18c-5.5 0-9-3.5-9-9s3.5-9 9-9c4.8-.2 8.8 3.4 9 8.2v.7c.2 4.8-3.4 8.8-8.2 9-.2.1-.5.1-.8.1zm19.9 8.4c-2.4 0-4.8-1-6.4-2.9-3.9-3.8-3.9-8.9 0-12.8 1.6-1.8 3.9-2.8 6.3-2.9 2.4.1 4.7 1.2 6.4 2.9 1.8 1.7 2.8 3.9 2.9 6.4 0 2.4-1 4.6-2.7 6.3-1.8 1.9-4.1 2.9-6.5 3zM65.1 46c-4.8.2-8.8-3.4-9-8.2V37c0-5.5 3.5-9 9-9s8.9 3.5 8.9 9c.2 4.8-3.4 8.8-8.2 9h-.7zm-8.3 20c-5-.1-9-4.3-8.9-9.3.1-2.3 1-4.5 2.6-6.2 1.6-1.8 3.9-2.9 6.4-2.9 2.4.1 4.8 1.1 6.4 2.9 1.8 1.6 2.8 3.9 2.9 6.3-.1 2.4-1.1 4.8-2.9 6.4-1.8 1.7-4.1 2.7-6.5 2.8zM37 74c-4.8.2-8.8-3.4-9-8.2v-.7c-.2-4.8 3.4-8.8 8.2-9h.8c5.5 0 9 3.5 9 9 0 5.4-3.5 8.9-9 8.9zm-19.8-7.9c-2.4-.1-4.7-1.2-6.4-2.9C7.3 60 7 54.6 10.2 51l.5-.5c1.7-1.8 3.9-2.8 6.4-2.9 2.4 0 4.8 1 6.4 2.9 3.9 3.8 3.9 8.9 0 12.8-1.6 1.7-3.9 2.7-6.3 2.8zM8.9 46C3.5 46 0 42.5 0 37c-.2-4.8 3.4-8.8 8.2-9h.7c4.8-.2 8.8 3.4 9 8.2v.8c.1 5.5-3.5 9-9 9zm8.2-19.6c-2.4-.1-4.8-1.1-6.4-2.9-3.7-3.8-3.7-8.8.1-12.7C12.5 9 14.7 8 17.2 7.9c2.4 0 4.6 1 6.3 2.7 1.8 1.7 2.8 4 2.9 6.5 0 2.4-1.1 4.7-2.9 6.3-1.6 1.9-3.9 3-6.4 3zM37 46.6c-5.5 0-9-3.6-9-9s3.5-9 9-9c4.8-.2 8.8 3.6 9 8.4v.6c.2 4.8-3.6 8.8-8.4 9H37z" style="fill:#228ae6"/></svg>