<?xml version="1.0" encoding="utf-8"?>
<!-- Generator: Adobe Illustrator 26.5.0, SVG Export Plug-In . SVG Version: 6.00 Build 0)  -->
<svg version="1.1" id="Layer_1" xmlns="http://www.w3.org/2000/svg" xmlns:xlink="http://www.w3.org/1999/xlink" x="0px" y="0px"
	 viewBox="0 0 500 325" style="enable-background:new 0 0 500 325;" xml:space="preserve">
<style type="text/css">
	.st0{fill:#222A5C;}
	.st1{fill:#DB3649;}
	.st2{fill:#169EFF;}
</style>
<g>
	<path class="st0" d="M40.7,39.3c0-1.4,0.3-3.1,1-4.2c0.7-1.7,2.1-3.1,5.2-4.2c1.4-0.3,5.2-1.4,9.4,0.3c3.1,1,4.9,3.5,5.9,5.9
		c0.7,2.1,0.7,4.9,0.7,5.9h35c0.7-2.1,1.7-4.9,3.1-8C96.2,15.3,78.5,2.5,51.4,2.5S2.9,16,2.9,41C2.2,85.7,65.6,76,65.6,97.2
		c0,5.9-4.9,9.7-11.4,9.7c-6.6,0-12.1-3.5-12.8-12.8H2.2c1.4,27.4,23.9,41.6,53.1,41.6c26,0,42.3-12.5,47.5-30.2
		c-5.5-10.4-8-21.9-8-33.6C76,54.9,40.7,53.8,40.7,39.3z"/>
	<path class="st0" d="M163.8,102.1c-16.6,0-27.1-12.8-27.1-33s11.1-32.6,27.4-32.6c4.9,0,9.7,1,13.5,3.8c3.8,2.4,7.3,5.9,9.7,10.4
		L219,30.9c-5.9-9-13.9-16.3-23.6-20.8c-9.7-4.9-20.1-6.6-30.9-6.6c-11.4,0-23.6,2.4-33.6,8c-10.4,5.9-17.3,14.2-22.2,23.2
		c-1.4,2.4-3.5,5.9-4.9,10.4c-2.4,7.3-3.8,11.4-3.8,20.1c0,2.1,0,8.7,0.7,14.6c1,6.6,2.4,11.4,5.2,18.7c0.3,1,3.1,6.2,4.2,8.7
		c5.2,8.7,12.5,15.3,22.2,20.5c10.1,5.2,20.8,7.6,32.3,7.3c8-0.3,16-1.4,23.6-3.8l12.1-32.6l-12.5-10.8c-2.4,4.2-5.5,7.6-10.1,10.4
		C173.9,100.7,168.7,101.7,163.8,102.1L163.8,102.1L163.8,102.1z"/>
	<path class="st0" d="M283.5,4.9h-42L194,134h38.2l6.9-21.2h46.5l6.9,21.2h33.3v-14.2L283.5,4.9z M248.4,85.4l13.9-42l13.9,42H248.4
		z"/>
	<path class="st0" d="M369.8,105.2V4.6h-36.4V134h75.3v-28.4C408.7,105.2,369.8,105.2,369.8,105.2z"/>
	<path class="st0" d="M498.9,33.7V4.6h-83.2V134h83.2v-28.8h-47.2V81.6h42V54.2h-42V33.7H498.9L498.9,33.7z"/>
	<path class="st0" d="M427.8,279v-61.4l34.7,61h36.4v-129h-36.8V212l-34.7-62.4h-34.7V279L427.8,279L427.8,279z"/>
	<path class="st0" d="M385.1,149.6h-30.9l-0.3,0.7l-6.2,30.2V279h37.5V149.6z"/>
	<path class="st0" d="M306,149.6l-12.1,74.6l-18.4-74.6h-38.2l-17.7,74.6l-13.2-74.6h-40.2L194,279h43.7l18.4-63.8l18,63.8h44.7
		l27.4-129.4H306z"/>
	<path class="st0" d="M1.1,150.6v24.3h22.5v65.6h28.4v-65.6h12.8l0.7-1.4c2.1-4.9,5.5-10.1,9.7-13.5v-9.4
		C75.7,150.6,1.1,150.6,1.1,150.6z"/>
	<path class="st0" d="M110.7,149.6c-26,0.7-46.1,21.5-45.8,46.5c0.7,25.3,21.9,45.1,47.9,44.4c26-0.7,46.1-21.5,45.8-46.5
		C157.9,169,136.4,149.2,110.7,149.6z M112.1,212.7c-10.1,0.3-18.4-7.6-18.4-17.3c0-9.7,7.6-17.7,17.7-18
		c10.1-0.3,18.4,7.6,18.4,17.3C129.5,204.7,121.8,212.7,112.1,212.7z"/>
	<path class="st1" d="M1.1,272.4c0-10.1,8.7-17.7,18.7-17.7c23.6,0,100.2,0,123.8,0c10.1,0,18.4,7.6,18.7,17.7
		c0,10.1-8,18.4-18,18.4H62.2l0,0l-39.5,20.1c-2.4,1-4.9-1-4.2-3.5l5.5-16.6l0,0h-4.9C9.1,290.8,1.1,282.4,1.1,272.4z"/>
	<path class="st2" d="M183.6,291.1c0-8-6.9-14.2-14.9-14.2c-18.7,0-68,0-86.7,0c-8,0-14.9,6.2-14.9,14.2s6.6,14.6,14.6,14.6h53.1
		l0,0l33,16.6c1.4,0.7,3.1-0.7,2.4-2.1l-4.9-14.6l0,0h3.8C177.3,305.7,183.6,299.4,183.6,291.1z"/>
</g>
</svg>
